<?xml version="1.0" standalone="no"?>
<!DOCTYPE svg PUBLIC "-//W3C//DTD SVG 20010904//EN"
 "http://www.w3.org/TR/2001/REC-SVG-20010904/DTD/svg10.dtd">
<svg version="1.0" xmlns="http://www.w3.org/2000/svg"
 width="16.000000pt" height="16.000000pt" viewBox="0 0 16.000000 16.000000"
 preserveAspectRatio="xMidYMid meet">
<metadata>
Created by potrace 1.11, written by Peter Selinger 2001-2013
</metadata>
<g transform="translate(0.000000,16.000000) scale(0.006957,-0.006957)"
fill="#000000" stroke="none">
<path d="M1198 2236 c-1 -2 -39 -6 -83 -9 -106 -8 -137 -14 -218 -42 -243 -84
-385 -274 -384 -514 0 -283 152 -457 614 -706 61 -33 73 -40 152 -94 120 -82
164 -146 166 -246 3 -109 -41 -188 -134 -238 -142 -78 -361 -66 -650 34 -64
23 -123 43 -132 46 -14 4 -16 -16 -16 -171 0 -192 -4 -179 62 -191 17 -2 39
-7 50 -9 11 -2 56 -9 100 -15 44 -7 94 -14 110 -17 17 -4 116 -8 220 -9 214
-4 304 8 442 57 203 73 341 214 388 397 17 65 23 204 11 257 -4 16 -8 38 -10
49 -20 105 -113 233 -244 338 -27 21 -202 137 -207 137 -2 0 -26 13 -52 28
-26 16 -79 45 -118 66 -92 51 -201 123 -247 164 -131 119 -91 308 80 373 88
33 229 32 382 -5 57 -14 214 -62 263 -81 16 -7 17 3 15 161 l-3 169 -35 6
c-173 32 -302 50 -390 55 -58 3 -110 7 -117 9 -6 2 -13 2 -15 1z"/>
</g>
</svg>
